<svg id="Layer_1" data-name="Layer 1" xmlns="http://www.w3.org/2000/svg" viewBox="0 0 819 376"><defs><style>.cls-1{fill:#4ac3ff;}.cls-1,.cls-2,.cls-3,.cls-4,.cls-5,.cls-6{stroke:#000;stroke-miterlimit:10;}.cls-2{fill:none;}.cls-3{fill:#ff490d;}.cls-4{fill:#fff;opacity:0.5;}.cls-6{fill:#201f00;}</style></defs><title>001</title><rect class="cls-1" x="0.5" y="0.5" width="818" height="375"/><path class="cls-2" d="M885,431.25v187.5s6,32,32,31,28.5-30,28.5-30V431.25l18.5-16H869.5Z" transform="translate(-672 -356)"/><path class="cls-3" d="M885,485.5h60.5V619.75s-1,26.5-29,30-31.5-31-31.5-31Z" transform="translate(-672 -356)"/><path class="cls-4" d="M885,556.33v62.42s5.5,19.5,15,14.5,9.5-15.5,9.5-15.5V415.25h-40l15.5,16Z" transform="translate(-672 -356)"/><path class="cls-2" d="M991,431.25v187.5s6,32,32,31,28.5-30,28.5-30V431.25l18.5-16H975.5Z" transform="translate(-672 -356)"/><path class="cls-3" d="M991,485.5h60.5V619.75s-1,26.5-29,30-31.5-31-31.5-31Z" transform="translate(-672 -356)"/><path class="cls-4" d="M991,556.33v62.42s5.5,19.5,15,14.5,9.5-15.5,9.5-15.5V415.25h-40l15.5,16Z" transform="translate(-672 -356)"/><path class="cls-2" d="M1097,431.25v187.5s6,32,32,31,28.5-30,28.5-30V431.25l18.5-16h-94.5Z" transform="translate(-672 -356)"/><path class="cls-3" d="M1097,485.5h60.5V619.75s-1,26.5-29,30-31.5-31-31.5-31Z" transform="translate(-672 -356)"/><path class="cls-4" d="M1097,556.33v62.42s5.5,19.5,15,14.5,9.5-15.5,9.5-15.5V415.25h-40l15.5,16Z" transform="translate(-672 -356)"/><path class="cls-2" d="M1203,431.25v187.5s6,32,32,31,28.5-30,28.5-30V431.25l18.5-16h-94.5Z" transform="translate(-672 -356)"/><path class="cls-3" d="M1203,485.5h60.5V619.75s-1,26.5-29,30-31.5-31-31.5-31Z" transform="translate(-672 -356)"/><path class="cls-4" d="M1203,556.33v62.42s5.5,19.5,15,14.5,9.5-15.5,9.5-15.5V415.25h-40l15.5,16Z" transform="translate(-672 -356)"/><rect class="cls-5" x="145.5" y="293.5" width="505" height="25"/><rect class="cls-6" x="145.5" y="143.5" width="505" height="25"/><rect class="cls-6" x="163.5" y="143.5" width="22" height="175"/><rect class="cls-6" x="613.5" y="143.5" width="22" height="175"/></svg>