<svg id="Layer_1" data-name="Layer 1" xmlns="http://www.w3.org/2000/svg" viewBox="0 0 963 635"><defs><style>.cls-1{fill:#25d5ff;}.cls-1,.cls-2,.cls-3,.cls-4,.cls-6,.cls-7,.cls-8,.cls-9{stroke:#0f050a;}.cls-1,.cls-2,.cls-3,.cls-4,.cls-5,.cls-6,.cls-7,.cls-8,.cls-9{stroke-miterlimit:10;}.cls-1,.cls-3,.cls-7,.cls-8,.cls-9{stroke-width:5px;}.cls-2,.cls-3,.cls-6{fill:none;}.cls-2,.cls-4,.cls-5{stroke-width:4px;}.cls-4{fill:#ff4509;}.cls-5{fill:#ff5909;stroke:#000;}.cls-7,.cls-8,.cls-9{fill:#fff;}.cls-7{opacity:0.5;}.cls-8{opacity:0.4;}</style></defs><title>002</title><rect class="cls-1" x="2.5" y="2.5" width="958" height="630"/><polygon class="cls-2" points="451.56 245 451.56 351.18 341.5 562.5 694 562.5 569.59 351.18 566.4 245 451.56 245"/><path class="cls-3" d="M775.91,348.38l332.91,71.29L1087.48,509,748.85,423.25S653.49,372.45,775.91,348.38Z" transform="translate(-624 -316)"/><path class="cls-4" d="M1090.76,524.45c23.32,10.43,11.88-19.58,11.88-19.58l-9.09-14.39s-4.52-3.18-6.69,9.26S1090.76,524.45,1090.76,524.45Z" transform="translate(-624 -316)"/><polygon class="cls-5" points="435.44 382.12 587.8 382.12 694.5 562.5 341.5 562.5 435.44 382.12"/><path class="cls-6" d="M1171.5,749.5" transform="translate(-624 -316)"/><path class="cls-7" d="M1087.48,509l-339-80.48s-30-21,0-38l347.41,83.19Z" transform="translate(-624 -316)"/><polygon class="cls-8" points="500.77 245 500.77 562.5 341.5 562.5 451.5 351.5 451.5 244.5 500.77 245"/><path class="cls-9" d="M663.5,698.5" transform="translate(-624 -316)"/></svg>