<svg id="Layer_1" data-name="Layer 1" xmlns="http://www.w3.org/2000/svg" viewBox="0 0 607.95 657.99"><defs><style>.cls-1{fill:#00cfd5;}.cls-1,.cls-2,.cls-3,.cls-4{stroke:#000;stroke-miterlimit:10;}.cls-2{fill:none;stroke-width:7px;}.cls-3{fill:#7d2200;}.cls-4{fill:#fff;opacity:0.3;}</style></defs><title>003</title><polygon class="cls-1" points="334.63 498.39 334.63 656.93 1.25 656.93 1.25 339.84 334.63 498.39"/><polygon class="cls-1" points="306.85 488.23 306.71 657.13 606.26 657.49 606.54 319.68 306.85 488.23"/><polygon class="cls-1" points="273.11 161.09 272.14 2.55 605.5 0.5 607.45 317.59 273.11 161.09"/><polygon class="cls-1" points="300.94 171.08 300.05 2.18 0.5 3.66 2.29 341.46 300.94 171.08"/><path class="cls-2" d="M1017.49,419.75V764.12s28.15,83.44,108.77,63.58,83.28-59.6,83.28-59.6V419.75Z" transform="translate(-812.93 -283.52)"/><path class="cls-3" d="M1017.49,558.82h192V772.07s-43.71,59.6-84.77,58.28-107.28-19.87-107.28-58.28Z" transform="translate(-812.93 -283.52)"/><polygon class="cls-4" points="238.34 136.24 237.67 497.82 204.56 488.55 204.56 136.24 238.34 136.24"/></svg>